<svg id="Capa_1" data-name="Capa 1" xmlns="http://www.w3.org/2000/svg" viewBox="0 0 300 300"><defs><style>.cls-1{fill:#19257c;}.cls-2{fill:#fff;}.cls-3{fill:#3b90b2;}</style></defs><g id="Capa_2" data-name="Capa 2"><rect class="cls-1" x="-25.38" width="350.75" height="304"/></g><g id="Capa_3" data-name="Capa 3"><path class="cls-2" d="M82.59,119.64l-12,56.52H50.78l-4.33-15.33-4.33,15.33H22.33l-12-56.52H30.47L33.25,144l4.55-24.34H55.1L59.64,144l2.86-24.34Z"/><path class="cls-2" d="M111.17,174.8l-19.36,2.31L85.1,121l19.36-2.31Z"/><path class="cls-2" d="M177.55,169.71,163.33,183l-19.28-20.82H132.76v14H113.49V119.64h34.23q10.54,0,17.37,5.43,7.18,5.79,7.18,15.83,0,9.82-7,15.61ZM151.24,140.9a4,4,0,0,0-1.43-3.23,5.53,5.53,0,0,0-3.63-1.17H132.77v8.8h13.41a5.53,5.53,0,0,0,3.63-1.17A4,4,0,0,0,151.24,140.9Z"/><path class="cls-2" d="M224.46,176.16H179.38V119.64h45.08v17.52H198.81v21.55h25.65Zm-7.91-21.11h-15.1V140.82h15.1Z"/><path class="cls-2" d="M283.21,149.41a28.34,28.34,0,0,1-29.84,26.66l-24.22-1.44,3.18-56.43,24.23,1.37a28.28,28.28,0,0,1,26.65,29.84Zm-17.71-1a10.71,10.71,0,0,0-10.08-11.29l-6-.34-1.2,21.37,6,.41a10,10,0,0,0,7.72-2.68A10.52,10.52,0,0,0,265.5,148.42Z"/><path class="cls-3" d="M84,118.27l-12,56.52H52.15l-4.33-15.33-4.33,15.33H23.7l-12-56.52H31.84l2.78,24.34,4.55-24.34h17.3L61,142.61l2.86-24.34Z"/><path class="cls-3" d="M112.54,173.43l-19.36,2.31-6.71-56.12,19.36-2.31Z"/><path class="cls-3" d="M178.92,168.34,164.7,181.6l-19.28-20.82H134.13v14H114.86V118.27h34.23q10.54,0,17.37,5.43,7.18,5.79,7.18,15.83,0,9.83-7,15.61Zm-26.31-28.81a4,4,0,0,0-1.43-3.23,5.53,5.53,0,0,0-3.63-1.17H134.14v8.8h13.41a5.53,5.53,0,0,0,3.63-1.17A4,4,0,0,0,152.61,139.53Z"/><path class="cls-3" d="M225.83,174.79H180.75V118.27h45.08v17.52H200.18v21.55h25.65Zm-7.91-21.11h-15.1V139.45h15.1Z"/><path class="cls-3" d="M284.58,148a28.34,28.34,0,0,1-29.84,26.66l-24.22-1.44,3.18-56.43,24.23,1.37A28.28,28.28,0,0,1,284.58,148Zm-17.71-1a10.71,10.71,0,0,0-10.08-11.29l-6-.34-1.2,21.37,6,.41a10,10,0,0,0,7.72-2.68A10.52,10.52,0,0,0,266.87,147.05Z"/></g></svg>